# xmcd
#
# Track frame offsets:
#	150
#	12364
#	23185
#	39500
#	52686
#	64951
#	72393
#	81284
#	93594
#	104294
#	115431
#	125888
#
# Disc length: 1872 seconds
#
# Revision: 8
# Processed by: cddbd v1.5.1PL2 Copyright (c) Steve Scherf et al.
# Submitted via: EasyCDDAExtractor 9.0.0.1
#
DISCID=a6074e0c
DTITLE=Elvis Presley - The Original Elvis Presley Collection 40 - He Touched M
DTITLE=e
DYEAR=1971
DGENRE=
TTITLE0=He Touched Me
TTITLE1=I've Got Confidence
TTITLE2=Amazing Grace
TTITLE3=Seeing Is Believing
TTITLE4=He Is My Everything
TTITLE5=Bosom Of Abraham
TTITLE6=An Evening Prayer
TTITLE7=Lead Me, Guide Me
TTITLE8=There Is No God But God
TTITLE9=A Thing Called Love
TTITLE10=I, John
TTITLE11=Reach Out To Jesus
EXTD=
EXTT0=
EXTT1=
EXTT2=
EXTT3=
EXTT4=
EXTT5=
EXTT6=
EXTT7=
EXTT8=
EXTT9=
EXTT10=
EXTT11=
PLAYORDER=
